<?xml version="1.0" standalone="no"?><!DOCTYPE svg PUBLIC "-//W3C//DTD SVG 1.1//EN" "http://www.w3.org/Graphics/SVG/1.1/DTD/svg11.dtd"><svg t="1727358369283" class="icon" viewBox="0 0 1024 1024" version="1.1" xmlns="http://www.w3.org/2000/svg" p-id="5231" width="48" height="48" xmlns:xlink="http://www.w3.org/1999/xlink"><path d="M219.616 36.8h580.288c125.088 0 187.616 62.528 187.616 187.616v579.968c0 125.088-62.528 187.616-187.616 187.616H219.616C94.528 992 32 929.472 32 804.384V224.416C32 99.296 94.528 36.768 219.616 36.768z" fill="#F4518C" p-id="5232"></path><path d="M756.288 260.672h-126.72l57.408-57.44c9.92-9.92 9.92-23.84 0-33.728-9.92-9.92-23.808-9.92-33.728 0l-96.928 97.024h-95.072l-97.024-97.024c-7.968-9.92-19.84-11.84-31.68-5.888-1.92 0-1.92 1.984-4.032 3.936-9.888 9.888-9.888 23.808 0 33.728l59.424 59.392H261.312c-69.44 0-126.72 57.44-126.72 126.72v314.848c0 67.2 57.28 124.672 126.72 124.672h19.776a41.92 41.92 0 0 0 41.568 41.664c21.76 0 41.568-19.936 41.568-41.664h293.056c1.952 23.808 21.76 41.664 45.6 39.584 21.76-1.952 37.504-17.856 39.584-39.584h15.776c69.28 0 126.72-57.44 126.72-126.752v-314.816c-1.92-69.312-59.392-124.672-128.672-124.672z m-3.936 488.96h-483.2c-25.696 0-45.504-21.76-47.456-47.392l-2.08-320.832c0-25.76 21.888-47.52 47.552-47.52h483.136c25.76 0 45.568 21.76 47.52 47.52l1.952 320.832c-1.92 27.616-21.76 47.424-47.424 47.424z" fill="#FFFFFF" opacity=".15" p-id="5233"></path><path d="M425.568 442.784l11.84 59.392-158.4 29.696-11.84-59.392 158.4-29.696z m152.512 59.392l11.84-59.392 158.4 29.696-11.84 59.392-158.4-29.696z m31.68 124.8c0 1.92 0 5.952-1.984 7.904-9.92 21.76-31.648 35.584-57.44 37.664-15.872 0-31.648-7.968-41.536-19.936-11.84 11.968-25.792 19.936-41.696 19.936a72.512 72.512 0 0 1-57.28-37.664c0-2.048-2.112-4.032-2.112-7.936 0-7.936 5.984-13.92 13.952-15.872h1.92c6.016 0 9.92 2.08 11.872 7.936 0 0 15.904 21.76 29.696 21.76 27.744 0 27.744-23.712 43.648-41.568 17.728 19.808 17.728 41.568 43.52 41.568 17.824 0 29.664-21.76 29.664-21.76 1.984-3.904 7.968-7.936 11.872-7.936 7.936-1.952 13.92 4.032 15.872 11.84v4.032z" fill="#FFFFFF" opacity=".15" p-id="5234"></path><path d="M740.736 599.328c-5.536-5.536-12.896-9.216-18.432-12.896a221.088 221.088 0 0 0-59.136-20.384c-20.384-3.68-42.368-7.36-64.608-5.504-3.68 0-5.504 0-9.184 1.824-9.216-77.44-12.896-153.216-9.216-230.784-24.064 7.488-44.32 18.528-66.56 25.92 22.24 112.544 35.136 225.248 44.352 339.648h7.36c16.672 0 31.424 0 48-3.68 20.384-1.824 40.64-7.36 60.992-12.992 20.288-7.36 38.72-14.72 53.536-29.472 9.216-7.36 16.576-14.72 18.432-25.92 5.504-9.184 3.68-18.4-5.536-25.76z m-112.576 62.72c-3.68-22.08-5.536-42.464-9.216-62.72 22.08 5.504 42.368 14.72 62.72 22.08-16.64 14.88-35.072 27.744-53.504 40.64z m-302.72-64.576a129.728 129.728 0 0 0-20.384-12.896c-18.432-9.312-38.816-14.848-59.072-18.528-20.256-3.68-40.64-5.504-60.896-3.68-3.68 0-5.504 0-9.184 1.856-9.344-77.472-14.88-155.072-11.2-232.64-22.08 5.632-44.288 18.528-64.544 25.92 22.208 112.544 35.104 225.248 44.288 339.648h7.36a368.96 368.96 0 0 0 90.496-11.04 193.856 193.856 0 0 0 68.256-31.424c9.344-7.36 18.56-16.576 22.24-27.744 5.504-11.04 1.824-20.256-7.36-29.44zM212.704 662.08c-3.68-22.08-5.536-42.464-9.216-62.72 7.36 0 55.36 18.4 60.896 22.08-14.72 14.88-33.152 27.744-51.68 40.64z m227.104-70.08c-1.856-16.704-1.856-31.424-3.68-48-1.856-18.56-3.68-38.816-3.68-57.216-1.856-16.704-1.856-35.104-3.68-51.68-1.856-18.56-1.856-36.96-3.712-55.488 0-5.536 0-5.536-5.504-5.536h-1.952c-7.36 0-14.72 0-20.256 1.856-5.536 0-11.072 1.824-16.576 1.824 16.576 92.32 25.76 186.496 34.976 280.64 11.168 0 22.208 1.856 33.28 1.856v-7.36c-7.36-22.24-9.216-40.64-9.216-60.896z m415.328 14.72c-1.856-18.432-3.68-35.104-3.68-53.536-1.856-18.4-3.712-38.784-5.536-57.184-1.856-18.432-1.856-35.136-3.68-53.536-1.856-22.208-3.68-42.496-3.68-64.704 0-5.504 0-5.504-5.536-5.504h-16.704c-7.36 0-14.72 1.824-23.936 3.68 16.576 92.32 25.92 186.464 35.104 280.64 11.072 0 22.112 1.824 33.152 1.824v-1.824l-5.504-49.856z m-57.216-38.784c-1.856-14.72-3.68-31.328-7.36-46.176 0-3.68-1.856-3.68-3.68-3.68h-18.432c-7.488 1.856-14.848 1.856-24.064 3.68 9.216 49.856 20.256 99.68 29.6 149.536 11.04-1.824 22.08-1.824 33.152-3.68-1.856-12.896-1.856-23.936-3.68-35.008-1.856-20.352-3.712-42.464-5.536-64.672z m-415.328 0a3069.76 3069.76 0 0 1-5.536-46.176c0-3.68-1.824-3.68-5.504-3.68-9.344 0-18.56 1.856-25.92 1.856-5.504 0-9.184 1.824-14.72 3.68 9.216 49.824 20.256 99.68 29.44 149.536 11.2-1.856 22.24-1.856 33.28-3.68v-1.856c-1.824-12.896-1.824-27.616-3.68-40.64-3.68-20.256-5.504-40.512-7.36-59.04z m118.08-38.784c0-5.536 0-5.536-5.504-5.536-12.896-1.856-25.792 0-40.64 0 5.536 51.68 9.216 101.536 14.848 151.36h33.152v-5.504c0-46.176 0-92.32-1.824-140.32z m417.28 90.464c0-29.44-1.92-59.04-1.92-90.464 0-5.536 0-5.536-5.536-5.536-12.896-1.856-27.616 0-40.512 0 5.504 51.68 9.184 101.536 14.72 151.36h33.28v-3.68a242.208 242.208 0 0 0 0-51.68zM345.696 462.688c1.856 11.04 3.712 24.064 3.712 35.104l1.824 1.856c5.536 0 12.896 0 18.56-1.856 0-7.36-1.984-12.896-1.984-18.56-1.824-12.864-1.824-23.904-3.68-36.8l-1.856-1.856a37.664 37.664 0 0 0-20.256 0v3.68c3.68 7.36 3.68 12.896 3.68 18.432z m422.816 36.96c5.536 0 12.896 0 18.432-1.856 0-7.36-1.856-12.896-1.856-20.384-1.856-11.04-1.856-23.936-3.68-34.976a1.856 1.856 0 0 0-1.856-1.856 38.208 38.208 0 0 0-20.352 0v1.856c1.824 18.4 3.68 36.8 7.36 55.36 0 1.856 1.952 1.856 1.952 1.856z m-288 1.824c0 1.856 0 1.856 1.824 1.856h18.432v-51.68c0-3.68 0-3.68-3.68-5.536-5.536 0-11.072 0-16.576-1.856v57.216z m417.152 3.68h18.432v-55.36l-1.856-1.856c-7.36 0-12.896-1.824-20.256-1.824v1.824c0 18.432 0 36.96 1.824 55.36a1.856 1.856 0 0 0 1.856 1.856z m-555.648-3.68c1.856 0 1.856-1.824 1.856-3.68 0-5.536 0-11.04-1.856-14.72-1.824-11.2-3.68-24.064-5.504-35.136 0-1.824 0-3.68-3.68-1.824-5.536 0-11.072 1.824-16.704 1.824 3.808 18.432 7.488 38.816 11.168 57.216 5.536-1.824 9.216-3.68 14.72-3.68z m413.472 0a3.904 3.904 0 0 0 3.712-3.68c-1.856-11.04-1.856-20.384-3.712-31.424 0-5.536-1.824-12.896-3.68-18.432 0-1.824 0-3.68-1.824-3.68-5.536 0-11.072 1.856-18.432 1.856 3.68 18.4 7.36 38.784 11.072 57.216 3.68 0 9.184 0 12.864-1.856z m131.136 3.68l1.824-1.824v-51.68c-1.824-1.856-1.824-3.68-3.68-3.68-5.536 0-12.896 0-18.528 1.824 1.952 18.432 1.952 38.784 3.808 57.216 5.504-1.856 11.04-1.856 16.576-1.856z m-415.328 0l1.856-1.824v-51.68l-1.856-1.856c-5.632 0-13.024 0-18.56 1.856 1.856 18.4 1.856 38.784 3.712 57.184 5.536-3.68 9.216-3.68 14.848-3.68z" fill="#FFFFFF" p-id="5235"></path></svg>